<svg width="20" height="20" viewBox="0 0 20 20" fill="none" xmlns="http://www.w3.org/2000/svg">
<path d="M19.9428 7.33556C20.2803 8.59518 19.0204 9.94926 18.8596 11.1655C18.6928 12.4268 19.54 14.0595 18.9147 15.1464C18.2894 16.2334 16.4484 16.3141 15.4396 17.0893C14.4672 17.8391 13.9233 19.6055 12.6643 19.9429C11.4054 20.2802 10.051 19.0196 8.83403 18.8591C7.57279 18.6923 5.94002 19.5394 4.85305 18.9141C3.76609 18.2888 3.68532 16.4479 2.91085 15.4389C2.16092 14.4667 0.394673 13.9234 0.0571579 12.6638C-0.28037 11.4042 0.980371 10.0505 1.14109 8.83424C1.30729 7.5732 0.460077 5.94048 1.08543 4.85354C1.71078 3.7666 3.55172 3.68584 4.56057 2.91073C5.53348 2.16065 6.0768 0.394446 7.33579 0.057115C8.59479 -0.280228 9.94981 0.980128 11.1661 1.14084C12.4274 1.30769 14.0601 0.4605 15.1471 1.08584C16.2341 1.71117 16.3148 3.55206 17.0899 4.56089C17.8364 5.53056 19.6046 6.07334 19.9428 7.33556Z" fill="#B8E900"/>
<path d="M12.8509 8.18213L8.30543 12.7276L6.23932 10.6615" fill="#B8E900"/>
<path d="M12.8509 8.18213L8.30543 12.7276L6.23932 10.6615" stroke="#111111" stroke-width="1.36364" stroke-linecap="round" stroke-linejoin="round"/>
</svg>
