<svg width="131" height="143" viewBox="0 0 131 143" fill="none" xmlns="http://www.w3.org/2000/svg">
<path d="M136.561 258.884L259.754 103.66C263.049 99.5076 260.562 93.3355 255.298 92.6079L114.588 73.1284C108.2 72.2441 103.665 66.4388 104.36 60.0367C105.085 53.3607 111.199 48.6254 117.856 49.5869L192.306 60.339C200.12 61.4673 204.378 51.5548 198.19 46.6434L155.246 12.5612C155.246 12.5612 121.229 -13.0215 86.9958 10.4304C52.7619 33.8815 59.0422 72.494 59.0422 72.494C59.0422 72.494 25.94 76.3108 11.2037 101.076C0.611666 118.875 -2.49569 133.288 4.0478 151.358C8.63321 164.019 16.808 175.081 27.3648 183.459L65.5765 213.786C69.1557 216.627 74.3523 216.037 77.1845 212.468L124.715 152.579L59.0526 144.087C53.474 143.366 49.4611 138.355 49.9798 132.761C50.5245 126.891 55.8328 122.657 61.6852 123.422L146.299 134.491C154.167 135.52 157.922 144.736 152.999 150.939L94.0839 225.173C91.0613 228.981 91.7085 234.526 95.5272 237.556L124.172 260.29C127.991 263.321 133.538 262.691 136.559 258.883L136.561 258.884Z" fill="#131313"/>
</svg>
